{"glyphs":{":":{"x_min":0,"x_max":252,"ha":252,"o":"m 94 352 l 94 451 l 159 451 l 159 352 z m 94 0 l 94 100 l 159 100 l 159 0 z"},"$":{"x_min":0,"x_max":505,"ha":505,"o":"m 272 53 q 342 58 382 91 q 422 124 422 177 q 422 227 388 258 q 354 290 272 314 z m 228 388 l 228 632 q 161 627 123 596 q 85 565 85 516 q 85 472 121 439 q 157 407 228 388 z m 228 -111 l 228 1 q 172 2 122 23 q 71 43 28 83 l 28 145 q 83 98 131 76 q 180 54 228 53 l 228 328 q 128 359 82 404 q 36 448 36 512 q 36 583 88 629 q 141 674 228 678 l 228 749 l 272 749 l 272 678 q 321 678 365 663 q 410 647 450 617 l 450 560 q 400 596 357 613 q 314 631 278 631 l 272 631 l 272 371 q 380 342 428 297 q 476 253 476 183 q 476 104 421 54 q 365 5 272 1 l 272 -111 z"},"?":{"x_min":0,"x_max":318,"ha":318,"o":"m 136 169 q 114 190 104 214 q 93 239 93 268 q 93 313 165 424 l 170 432 q 189 462 200 494 q 211 525 211 550 q 211 597 191 623 q 171 649 135 649 q 113 649 95 638 q 77 627 55 600 l 47 605 l 69 675 q 84 685 100 689 q 117 694 138 694 q 192 694 228 654 q 264 613 264 551 q 264 518 251 480 q 237 442 208 394 q 200 380 182 355 q 135 290 135 248 q 135 229 140 213 q 145 197 154 184 z m 107 0 l 107 100 l 172 100 l 172 0 z"},"<":{"x_min":0,"x_max":833,"ha":833,"o":"m 704 505 l 194 298 l 704 91 l 704 48 l 129 283 l 129 313 l 704 549 z"},"'":{"x_min":0,"x_max":139,"ha":139,"o":"m 91 700 l 91 430 l 49 430 l 49 700 z"},"=":{"x_min":0,"x_max":833,"ha":833,"o":"m 709 229 l 709 189 l 124 189 l 124 229 z m 709 406 l 709 367 l 124 367 l 124 406 z"},"a":{"x_min":0,"x_max":412,"ha":412,"o":"m 290 91 l 290 232 q 192 230 136 197 q 79 163 79 108 q 79 73 103 53 q 126 33 167 33 q 195 33 225 47 q 254 61 290 91 z m 291 44 q 253 15 221 3 q 188 -10 153 -10 q 97 -10 62 22 q 28 55 28 106 q 28 181 95 224 q 163 267 290 272 l 290 320 q 290 371 266 394 q 242 417 189 417 q 156 417 123 404 q 90 391 51 362 l 51 411 q 89 437 124 449 q 159 461 193 461 q 271 461 305 425 q 340 389 340 308 l 340 72 q 340 57 344 50 q 348 43 356 43 q 368 43 396 68 q 403 75 407 78 l 407 32 q 385 12 367 1 q 348 -9 334 -9 q 312 -9 302 4 q 292 16 291 44 z"},"L":{"x_min":0,"x_max":473,"ha":473,"o":"m 83 0 l 83 683 l 140 683 l 140 46 l 462 46 l 462 0 z"},"3":{"x_min":0,"x_max":505,"ha":505,"o":"m 47 25 l 47 78 q 84 58 120 49 q 156 39 192 39 q 270 39 315 79 q 360 119 360 187 q 360 256 313 296 q 267 336 185 337 l 185 386 q 265 391 309 426 q 353 460 353 518 q 353 576 309 612 q 266 649 196 649 q 162 649 129 637 q 95 625 57 600 l 57 651 q 89 672 125 683 q 161 694 200 694 q 293 694 348 646 q 404 599 404 521 q 404 462 374 423 q 344 383 285 364 q 350 343 381 299 q 413 255 413 188 q 413 98 354 43 q 294 -11 195 -11 q 151 -11 114 -2 q 77 7 47 25 z"},";":{"x_min":0,"x_max":252,"ha":252,"o":"m 94 352 l 94 451 l 159 451 l 159 352 z m 121 0 l 94 0 l 94 100 l 159 100 l 159 25 q 159 -29 144 -61 q 129 -93 94 -117 l 94 -78 q 108 -67 115 -51 q 121 -34 121 -7 z"},"J":{"x_min":0,"x_max":228,"ha":228,"o":"m 86 0 l 86 683 l 145 683 l 145 5 q 145 -102 107 -150 q 70 -199 -10 -199 q -13 -199 -20 -199 q -27 -198 -30 -198 l -40 -146 q -36 -146 -30 -147 q -24 -147 -14 -147 q 42 -147 64 -115 q 86 -83 86 0 z"},"V":{"x_min":0,"x_max":544,"ha":544,"o":"m -22 683 l 38 683 l 272 110 l 508 683 l 566 683 l 277 -12 l 268 -12 z"},"\"":{"x_min":0,"x_max":269,"ha":269,"o":"m 220 700 l 220 430 l 178 430 l 178 700 z m 91 700 l 91 430 l 49 430 l 49 700 z"},"7":{"x_min":0,"x_max":505,"ha":505,"o":"m 115 8 l 402 634 l 29 634 l 29 683 l 474 683 l 474 676 l 161 -13 z"},"S":{"x_min":0,"x_max":458,"ha":458,"o":"m 402 586 q 359 615 321 628 q 283 642 245 642 q 183 642 144 606 q 104 569 104 514 q 104 469 129 441 q 155 413 239 377 q 244 375 253 371 q 348 333 380 297 q 402 273 413 242 q 425 211 425 177 q 425 95 368 43 q 312 -10 223 -10 q 179 -10 135 5 q 91 21 47 51 l 47 117 q 95 80 138 61 q 182 43 222 43 q 289 43 328 80 q 367 116 367 179 q 367 226 341 255 q 314 285 219 324 q 121 365 85 406 q 49 447 49 511 q 49 591 104 641 q 159 692 247 692 q 287 692 325 681 q 363 670 402 647 z"},"}":{"x_min":0,"x_max":500,"ha":500,"o":"m 266 537 l 266 420 q 266 343 294 311 q 323 280 392 280 q 396 280 403 280 q 410 281 414 281 l 414 237 q 410 237 403 237 q 396 238 392 238 q 323 238 294 207 q 266 175 266 98 l 266 -19 q 266 -129 233 -166 q 199 -202 107 -202 l 86 -202 l 86 -159 l 105 -159 q 170 -159 193 -135 q 216 -110 216 -31 l 216 87 q 216 172 237 208 q 258 243 312 259 q 258 274 237 310 q 216 346 216 431 l 216 549 q 216 628 193 653 q 170 678 104 678 l 86 678 l 86 721 l 107 721 q 199 721 233 685 q 266 648 266 537 z"},"Z":{"x_min":0,"x_max":625,"ha":625,"o":"m 9 0 l 9 23 l 522 638 l 38 638 l 38 683 l 611 683 l 611 662 l 100 48 l 611 48 l 611 0 z"},"x":{"x_min":0,"x_max":427,"ha":427,"o":"m -3 0 l 178 230 l 1 451 l 62 451 l 211 266 l 359 451 l 417 451 l 243 229 l 429 0 l 366 0 l 211 193 l 54 0 z"},")":{"x_min":0,"x_max":279,"ha":279,"o":"m 7 -222 q 102 -117 148 -4 q 194 109 194 237 q 194 365 148 478 q 102 590 7 695 l 55 695 q 152 591 201 478 q 249 364 249 237 q 249 110 201 -4 q 152 -119 55 -222 z"},"&":{"x_min":0,"x_max":618,"ha":618,"o":"m 402 147 l 233 326 q 160 295 123 254 q 86 213 86 162 q 86 111 123 76 q 160 41 214 41 q 267 41 314 68 q 362 95 402 147 z m 249 386 q 312 416 343 450 q 373 484 373 526 q 373 570 344 597 q 314 624 266 624 q 223 624 194 596 q 165 569 165 528 q 165 494 185 459 q 206 424 249 386 z m 542 0 l 440 107 q 394 49 336 21 q 278 -8 208 -8 q 127 -8 76 39 q 26 85 26 159 q 26 222 70 276 q 114 330 195 366 q 153 406 133 446 q 113 485 113 526 q 113 588 158 630 q 203 671 272 671 q 340 671 383 631 q 426 591 426 528 q 426 473 391 429 q 355 384 284 350 l 435 190 q 458 220 476 258 q 494 296 507 344 l 563 344 q 550 288 527 240 q 504 193 471 152 l 614 0 z"},"_":{"x_min":0,"x_max":500,"ha":500,"o":"m 500 -197 l 500 -236 l 0 -236 l 0 -197 z"},"v":{"x_min":0,"x_max":422,"ha":422,"o":"m 197 -9 l -5 451 l 51 451 l 215 75 l 371 451 l 423 451 l 231 -9 z"},"O":{"x_min":0,"x_max":797,"ha":797,"o":"m 100 342 q 100 282 123 225 q 146 169 187 126 q 229 84 284 61 q 340 37 399 37 q 460 37 514 60 q 568 83 611 126 q 653 169 676 225 q 698 280 698 342 q 698 403 676 458 q 654 513 611 556 q 568 599 513 623 q 458 646 399 646 q 340 646 285 623 q 230 600 187 556 q 145 514 123 459 q 100 403 100 342 z m 40 344 q 40 413 67 477 q 95 542 145 591 q 197 641 262 667 q 327 694 399 694 q 472 694 537 667 q 602 641 653 591 q 705 540 731 477 q 758 414 758 342 q 758 288 742 238 q 727 188 697 144 q 646 69 568 29 q 490 -12 399 -12 q 327 -12 260 15 q 194 42 145 91 q 94 142 67 207 q 40 272 40 344 z"},"(":{"x_min":0,"x_max":279,"ha":279,"o":"m 272 695 q 177 590 131 478 q 85 365 85 237 q 85 109 131 -4 q 177 -117 272 -222 l 224 -222 q 126 -119 78 -4 q 30 110 30 237 q 30 364 78 478 q 126 591 224 695 z"},"C":{"x_min":0,"x_max":679,"ha":679,"o":"m 648 51 q 587 20 527 4 q 468 -12 409 -12 q 350 -12 297 3 q 244 19 198 49 q 123 98 82 175 q 40 253 40 344 q 40 413 67 478 q 95 542 145 591 q 198 642 265 668 q 332 695 409 695 q 465 695 525 679 q 584 663 648 631 l 648 574 q 579 611 520 628 q 461 646 407 646 q 359 646 316 633 q 272 620 234 595 q 170 552 135 486 q 100 420 100 342 q 100 282 123 225 q 146 169 187 126 q 229 83 285 60 q 342 37 407 37 q 460 37 519 55 q 578 72 648 109 z"},"W":{"x_min":0,"x_max":926,"ha":926,"o":"m 251 115 l 453 683 l 473 683 l 681 115 l 882 683 l 941 683 l 685 -12 l 674 -12 l 464 562 l 256 -12 l 245 -12 l -16 683 l 44 683 z"},"A":{"x_min":0,"x_max":566,"ha":566,"o":"m 152 284 l 414 284 l 283 594 z m -26 0 l 272 689 l 294 689 l 592 0 l 534 0 l 433 238 l 133 238 l 32 0 z"},"f":{"x_min":0,"x_max":205,"ha":205,"o":"m 68 0 l 68 409 l -10 409 l -10 451 l 68 451 l 68 501 q 68 599 105 645 q 143 691 222 691 q 232 691 244 689 q 256 688 271 685 l 271 642 q 260 645 249 646 q 238 647 228 647 q 170 647 145 617 q 119 586 119 515 l 119 451 l 202 451 l 202 409 l 119 409 l 119 0 z"},"Q":{"x_min":0,"x_max":797,"ha":797,"o":"m 99 342 q 99 282 122 225 q 145 169 186 126 q 227 84 283 61 q 340 37 399 37 q 459 37 513 60 q 567 83 610 126 q 652 169 675 225 q 697 280 697 342 q 697 403 675 458 q 653 513 610 556 q 567 600 513 623 q 458 646 399 646 q 340 646 285 623 q 230 600 187 556 q 145 514 122 458 q 99 403 99 342 z m 352 -8 q 210 14 125 111 q 39 208 39 344 q 39 413 67 477 q 95 542 145 591 q 197 641 261 667 q 326 694 398 694 q 471 694 536 667 q 601 641 652 591 q 704 540 731 476 q 758 413 758 342 q 758 205 670 108 q 583 11 439 -8 q 500 -47 553 -68 q 605 -88 645 -88 q 667 -88 686 -82 q 705 -76 724 -63 l 734 -73 l 674 -144 q 600 -142 520 -108 q 441 -75 352 -8 z"},"w":{"x_min":0,"x_max":716,"ha":716,"o":"m 186 -9 l -5 451 l 48 451 l 197 81 l 341 451 l 369 451 l 503 81 l 661 451 l 716 451 l 514 -9 l 486 -9 l 354 358 l 213 -9 z"},"-":{"x_min":0,"x_max":333,"ha":333,"o":"m 47 202 l 47 249 l 287 249 l 287 202 z"},"E":{"x_min":0,"x_max":493,"ha":493,"o":"m 80 0 l 80 683 l 450 683 l 450 639 l 135 639 l 135 368 l 440 368 l 440 324 l 135 324 l 135 46 l 458 46 l 458 0 z"},"s":{"x_min":0,"x_max":347,"ha":347,"o":"m 34 82 q 68 59 102 48 q 135 37 169 37 q 212 37 237 58 q 262 78 262 114 q 262 166 171 199 q 148 208 135 213 q 85 232 60 263 q 35 294 35 337 q 35 392 75 426 q 115 461 178 461 q 207 461 238 452 q 268 442 301 423 l 301 371 q 267 393 235 404 q 204 415 175 415 q 135 415 109 393 q 83 372 83 338 q 83 308 107 288 q 130 268 195 245 q 263 221 289 193 q 314 165 314 119 q 314 59 274 25 q 234 -10 165 -10 q 130 -10 98 0 q 66 10 34 30 z"},">":{"x_min":0,"x_max":833,"ha":833,"o":"m 704 313 l 704 283 l 129 48 l 129 91 l 639 298 l 129 505 l 129 549 z"},"l":{"x_min":0,"x_max":178,"ha":178,"o":"m 64 0 l 64 683 l 115 683 l 115 0 z"},"8":{"x_min":0,"x_max":505,"ha":505,"o":"m 158 354 q 114 383 92 423 q 69 463 69 512 q 69 589 122 642 q 174 695 252 695 q 330 695 383 642 q 436 589 436 512 q 436 463 413 423 q 391 383 347 355 q 398 323 424 281 q 450 238 450 184 q 450 100 394 44 q 337 -12 252 -12 q 167 -12 111 44 q 55 100 55 184 q 55 237 81 280 q 106 322 158 354 z m 118 513 q 118 458 158 418 q 198 378 253 378 q 309 378 348 417 q 387 457 387 513 q 387 569 348 609 q 309 648 253 648 q 197 648 157 609 q 118 569 118 513 z m 108 184 q 108 123 150 80 q 193 36 252 36 q 313 36 355 79 q 398 122 398 184 q 398 246 356 290 q 313 333 253 333 q 193 333 151 289 q 108 245 108 184 z"},"\\":{"x_min":0,"x_max":278,"ha":278,"o":"m 234 -93 l -56 694 l -10 694 l 281 -93 z"},"e":{"x_min":0,"x_max":478,"ha":478,"o":"m 431 50 q 387 20 345 5 q 303 -10 259 -10 q 158 -10 96 57 q 35 123 35 233 q 35 335 93 398 q 151 460 245 460 q 333 460 386 401 q 440 342 440 244 l 440 242 l 88 242 l 88 237 q 88 148 135 94 q 183 39 258 39 q 303 39 344 55 q 386 71 431 105 z m 94 285 l 381 285 q 373 345 334 381 q 296 417 241 417 q 185 417 144 380 q 103 344 94 285 z"},"b":{"x_min":0,"x_max":493,"ha":493,"o":"m 113 77 q 134 59 161 50 q 189 41 223 41 q 304 41 356 95 q 407 149 407 236 q 407 314 364 365 q 321 415 255 415 q 215 415 179 395 q 144 375 113 335 z m 65 26 l 65 683 l 113 683 l 113 393 q 149 429 188 445 q 226 462 272 462 q 356 462 410 399 q 464 337 464 239 q 464 128 396 60 q 327 -9 217 -9 q 182 -9 144 0 q 107 8 65 26 z"},"%":{"x_min":0,"x_max":865,"ha":865,"o":"m 506 173 q 506 115 546 75 q 585 35 643 35 q 700 35 740 75 q 780 115 780 173 q 780 231 740 271 q 700 312 643 312 q 586 312 546 272 q 506 231 506 173 z m 458 173 q 458 250 512 305 q 566 359 643 359 q 720 359 774 305 q 828 250 828 173 q 828 96 774 42 q 720 -12 643 -12 q 566 -12 512 42 q 458 96 458 173 z m 177 -12 l 635 694 l 688 694 l 229 -12 z m 86 509 q 86 451 125 410 q 165 370 222 370 q 279 370 319 411 q 359 451 359 509 q 359 567 319 607 q 279 648 222 648 q 165 648 125 608 q 86 567 86 509 z m 37 509 q 37 586 91 640 q 145 694 222 694 q 299 694 353 640 q 407 586 407 509 q 407 432 353 378 q 299 324 222 324 q 145 324 91 378 q 37 432 37 509 z"},"m":{"x_min":0,"x_max":773,"ha":773,"o":"m 60 0 l 60 451 l 110 451 l 110 379 q 141 419 178 439 q 216 459 260 459 q 311 459 344 437 q 377 416 400 367 q 438 415 477 437 q 516 459 562 459 q 636 459 676 411 q 716 363 716 275 l 716 0 l 665 0 l 665 251 q 665 333 638 373 q 611 413 556 413 q 511 413 475 389 q 439 365 413 318 l 413 0 l 363 0 l 363 251 q 363 333 335 373 q 308 413 253 413 q 209 413 173 389 q 137 365 110 318 l 110 0 z"},"#":{"x_min":0,"x_max":769,"ha":769,"o":"m 478 423 l 346 423 l 298 285 l 429 285 z m 447 710 l 362 467 l 494 467 l 580 710 l 634 710 l 549 467 l 706 467 l 691 423 l 533 423 l 484 285 l 654 285 l 639 241 l 468 241 l 383 0 l 328 0 l 414 241 l 282 241 l 195 0 l 141 0 l 226 241 l 63 241 l 78 285 l 242 285 l 291 423 l 115 423 l 129 467 l 307 467 l 393 710 z"},",":{"x_min":0,"x_max":252,"ha":252,"o":"m 121 0 l 94 0 l 94 100 l 159 100 l 159 25 q 159 -29 144 -61 q 129 -93 94 -117 l 94 -78 q 108 -67 115 -51 q 121 -34 121 -7 z"},"n":{"x_min":0,"x_max":484,"ha":484,"o":"m 60 0 l 60 451 l 110 451 l 110 379 q 143 419 181 439 q 220 459 266 459 q 343 459 384 411 q 426 363 426 275 l 426 0 l 376 0 l 376 251 q 376 333 347 373 q 319 413 261 413 q 214 413 177 389 q 139 365 110 318 l 110 0 z"},"h":{"x_min":0,"x_max":487,"ha":487,"o":"m 64 0 l 64 683 l 113 683 l 113 379 q 146 419 185 439 q 224 459 270 459 q 347 459 388 411 q 429 363 429 275 l 429 0 l 379 0 l 379 251 q 379 333 351 373 q 323 413 265 413 q 218 413 180 389 q 141 365 113 318 l 113 0 z"},"z":{"x_min":0,"x_max":412,"ha":412,"o":"m 11 0 l 11 19 l 306 403 l 32 403 l 32 451 l 389 451 l 389 431 l 94 47 l 389 47 l 389 0 z"},"B":{"x_min":0,"x_max":546,"ha":546,"o":"m 135 324 l 135 46 l 248 46 q 353 46 401 79 q 449 111 449 182 q 449 247 399 285 q 349 324 265 324 z m 135 639 l 135 370 l 246 370 q 312 370 353 407 q 394 445 394 506 q 394 568 352 604 q 310 639 237 639 z m 80 0 l 80 683 l 241 683 q 337 683 394 636 q 450 589 450 510 q 450 457 426 419 q 401 381 353 358 q 431 338 470 292 q 510 247 510 176 q 510 132 489 95 q 468 59 429 34 q 400 16 362 8 q 323 0 241 0 z"},"K":{"x_min":0,"x_max":542,"ha":542,"o":"m 84 0 l 84 683 l 139 683 l 139 348 l 463 683 l 534 683 l 210 348 l 570 0 l 493 0 l 139 343 l 139 0 z"},"R":{"x_min":0,"x_max":560,"ha":560,"o":"m 135 637 l 135 375 l 177 375 q 255 375 285 379 q 315 383 336 392 q 374 409 392 438 q 411 468 411 512 q 411 572 369 604 q 327 637 249 637 z m 80 683 l 246 683 q 355 683 413 639 q 471 595 471 512 q 471 449 439 408 q 406 366 341 345 q 359 334 375 320 q 390 306 402 288 l 590 0 l 528 0 l 419 168 q 387 217 363 249 q 340 281 326 295 q 308 313 278 321 q 249 328 191 328 l 135 328 l 135 0 l 80 0 z"},"T":{"x_min":0,"x_max":581,"ha":581,"o":"m 261 0 l 261 634 l 7 634 l 7 683 l 574 683 l 574 634 l 320 634 l 320 0 z"},"P":{"x_min":0,"x_max":502,"ha":502,"o":"m 135 637 l 135 365 l 239 365 q 327 365 369 399 q 411 432 411 503 q 411 569 370 603 q 329 637 249 637 z m 80 683 l 246 683 q 357 683 414 637 q 471 590 471 500 q 471 417 417 367 q 362 318 270 318 l 135 318 l 135 0 l 80 0 z"},"|":{"x_min":0,"x_max":500,"ha":500,"o":"m 272 764 l 272 -236 l 228 -236 l 228 764 z"},"t":{"x_min":0,"x_max":264,"ha":264,"o":"m 132 111 q 132 65 144 51 q 157 36 189 36 q 206 36 224 42 q 242 47 264 59 l 264 10 q 243 0 223 -4 q 203 -9 182 -9 q 126 -9 103 18 q 80 45 80 112 l 80 409 l -16 409 l -16 451 l 82 451 l 82 554 l 120 598 l 132 598 l 132 451 l 253 451 l 253 409 l 132 409 z"},"M":{"x_min":0,"x_max":784,"ha":784,"o":"m 80 0 l 80 683 l 137 683 l 392 368 l 646 683 l 704 683 l 704 0 l 648 0 l 648 603 l 392 285 l 135 603 l 135 0 z"},"g":{"x_min":0,"x_max":419,"ha":419,"o":"m 210 -22 q 133 -22 95 -43 q 58 -65 58 -109 q 58 -146 97 -167 q 136 -187 206 -187 q 283 -187 323 -165 q 363 -144 363 -101 q 363 -61 325 -42 q 288 -22 210 -22 z m 88 290 q 88 242 122 208 q 157 174 206 174 q 255 174 289 208 q 323 242 323 291 q 323 340 289 374 q 255 408 206 408 q 157 408 123 374 q 88 339 88 290 z m 150 141 q 95 163 66 201 q 38 239 38 291 q 38 333 59 368 q 80 404 119 428 q 139 440 165 446 q 191 451 246 451 l 414 451 l 414 408 l 318 408 q 346 382 359 354 q 372 326 372 291 q 372 230 337 191 q 301 152 227 131 q 215 127 193 122 q 115 103 115 67 q 115 34 223 23 l 228 23 q 333 13 372 -14 q 411 -41 411 -98 q 411 -164 360 -196 q 309 -228 204 -228 q 110 -228 61 -197 q 11 -166 11 -108 q 11 -64 43 -34 q 75 -5 132 3 q 102 10 86 26 q 70 42 70 66 q 70 91 91 111 q 112 131 150 141 z"},"j":{"x_min":0,"x_max":181,"ha":181,"o":"m 67 600 l 67 683 l 117 683 l 117 600 z m 67 -52 l 67 451 l 117 451 l 117 -56 q 117 -141 85 -180 q 53 -220 -20 -228 l -32 -184 q 24 -179 45 -152 q 67 -124 67 -52 z"},"i":{"x_min":0,"x_max":178,"ha":178,"o":"m 64 600 l 64 683 l 115 683 l 115 600 z m 64 0 l 64 451 l 115 451 l 115 0 z"},"y":{"x_min":0,"x_max":422,"ha":422,"o":"m 194 88 l 5 451 l 61 451 l 221 144 l 371 451 l 423 451 l 91 -227 l 40 -227 z"},"@":{"x_min":0,"x_max":1000,"ha":1000,"o":"m 636 404 l 666 467 l 705 467 l 638 197 q 633 179 631 165 q 628 151 628 144 q 628 123 643 111 q 658 99 685 99 q 708 99 734 109 q 759 118 784 136 q 833 172 863 237 q 893 302 893 375 q 893 508 796 590 q 698 671 539 671 q 457 671 387 647 q 318 624 261 577 q 186 515 148 432 q 110 350 110 249 q 110 89 218 -6 q 326 -101 507 -101 q 585 -101 665 -76 q 745 -52 811 -7 l 825 -29 q 754 -83 675 -109 q 595 -136 509 -136 q 417 -136 341 -114 q 265 -91 206 -46 q 132 10 95 85 q 59 159 59 255 q 59 334 84 405 q 108 476 156 534 q 226 620 324 664 q 423 708 544 708 q 622 708 693 687 q 763 665 814 626 q 876 578 909 515 q 941 453 941 380 q 941 297 910 229 q 879 162 822 116 q 789 90 751 76 q 712 62 673 62 q 626 62 603 80 q 579 98 579 133 q 579 139 581 149 q 581 151 581 152 q 557 109 520 85 q 483 62 439 62 q 364 62 325 103 q 286 143 286 221 q 286 333 352 410 q 417 487 511 487 q 558 487 589 466 q 621 445 636 404 z m 595 228 l 626 352 q 615 400 586 426 q 557 451 512 451 q 438 451 387 384 q 337 316 337 218 q 337 162 365 130 q 393 98 443 98 q 497 98 539 134 q 580 169 595 228 z"},".":{"x_min":0,"x_max":252,"ha":252,"o":"m 94 0 l 94 100 l 159 100 l 159 0 z"},"p":{"x_min":0,"x_max":491,"ha":491,"o":"m 113 363 l 113 87 q 138 61 167 49 q 197 36 234 36 q 310 36 357 89 q 405 141 405 225 q 405 309 357 362 q 310 414 234 414 q 196 414 167 402 q 138 389 113 363 z m 65 -227 l 65 451 l 113 451 l 113 419 q 141 440 172 450 q 203 460 240 460 q 339 460 400 395 q 461 331 461 226 q 461 122 400 57 q 339 -8 240 -8 q 202 -8 171 2 q 140 12 113 32 l 113 -227 z"},"X":{"x_min":0,"x_max":670,"ha":670,"o":"m -9 0 l 299 353 l 10 683 l 81 683 l 333 393 l 589 683 l 660 683 l 369 354 l 680 0 l 609 0 l 335 314 l 62 0 z"},"*":{"x_min":0,"x_max":442,"ha":442,"o":"m 196 297 l 216 482 l 98 337 l 63 372 l 208 490 l 22 471 l 22 520 l 208 501 l 63 619 l 98 654 l 216 509 l 196 694 l 246 694 l 226 509 l 344 654 l 379 619 l 234 501 l 420 520 l 420 471 l 234 490 l 379 372 l 344 337 l 226 482 l 246 297 z"},"Y":{"x_min":0,"x_max":544,"ha":544,"o":"m 244 0 l 244 366 l -21 683 l 47 683 l 272 413 l 497 683 l 565 683 l 300 366 l 300 0 z"},"c":{"x_min":0,"x_max":403,"ha":403,"o":"m 385 18 q 357 4 329 -2 q 301 -9 271 -9 q 167 -9 100 57 q 33 123 33 226 q 33 326 102 394 q 171 461 275 461 q 300 461 325 456 q 351 451 376 441 l 376 385 q 350 400 324 407 q 297 414 268 414 q 193 414 140 359 q 88 304 88 225 q 88 146 140 91 q 192 37 268 37 q 296 37 325 46 q 354 56 385 74 z"},"!":{"x_min":0,"x_max":252,"ha":252,"o":"m 110 194 l 96 683 l 157 683 l 142 194 z m 94 0 l 94 100 l 159 100 l 159 0 z"},"/":{"x_min":0,"x_max":278,"ha":278,"o":"m 44 -93 l -3 -93 l 287 694 l 334 694 z"},"[":{"x_min":0,"x_max":279,"ha":279,"o":"m 105 -163 l 284 -163 l 284 -211 l 53 -211 l 53 683 l 284 683 l 284 635 l 105 635 z"},"6":{"x_min":0,"x_max":505,"ha":505,"o":"m 117 320 q 153 348 189 362 q 226 375 267 375 q 350 375 404 321 q 459 267 459 184 q 459 96 404 42 q 349 -12 258 -12 q 165 -12 110 54 q 54 121 54 233 q 54 360 127 475 q 199 589 346 694 l 372 661 q 260 578 197 493 q 134 409 117 320 z m 110 260 q 110 259 110 257 q 108 234 108 223 q 108 138 149 89 q 191 39 262 39 q 326 39 365 77 q 405 115 405 175 q 405 245 365 285 q 325 325 255 325 q 219 325 182 308 q 145 292 110 260 z"},"r":{"x_min":0,"x_max":331,"ha":331,"o":"m 67 0 l 67 451 l 117 451 l 117 340 q 159 404 194 432 q 229 459 266 459 q 287 459 306 451 q 325 442 346 425 l 319 377 q 298 394 281 401 q 265 409 249 409 q 219 409 188 380 q 156 351 117 285 l 117 0 z"},"2":{"x_min":0,"x_max":505,"ha":505,"o":"m 41 0 l 41 9 q 194 161 274 286 q 355 412 355 497 q 355 564 311 606 q 267 648 196 648 q 161 648 125 631 q 89 613 51 577 l 51 633 q 88 665 126 680 q 164 695 206 695 q 295 695 351 639 q 407 583 407 493 q 407 413 346 306 q 284 199 153 51 l 472 51 l 472 0 z"},"{":{"x_min":0,"x_max":500,"ha":500,"o":"m 414 678 l 396 678 q 330 678 307 653 q 284 628 284 549 l 284 431 q 284 346 263 310 q 242 274 189 259 q 242 243 263 208 q 284 173 284 87 l 284 -31 q 284 -110 307 -135 q 330 -159 395 -159 l 414 -159 l 414 -202 l 393 -202 q 301 -202 267 -166 q 234 -129 234 -19 l 234 98 q 234 175 206 207 q 177 238 108 238 q 104 238 97 237 q 90 237 86 237 l 86 281 q 91 280 96 280 q 101 280 110 280 q 178 280 206 311 q 234 343 234 420 l 234 537 q 234 648 267 685 q 301 721 393 721 l 414 721 z"},"9":{"x_min":0,"x_max":505,"ha":505,"o":"m 385 363 q 349 335 312 322 q 275 308 234 308 q 151 308 97 362 q 43 417 43 499 q 43 587 98 640 q 153 694 244 694 q 337 694 393 628 q 448 562 448 450 q 448 323 375 208 q 302 92 156 -12 l 129 22 q 241 105 305 190 q 368 274 385 363 z m 392 423 q 392 424 392 426 q 394 449 394 459 q 394 544 352 594 q 311 644 239 644 q 176 644 136 606 q 97 568 97 508 q 97 438 137 398 q 177 358 247 358 q 283 358 320 375 q 357 392 392 423 z"}," ":{"x_min":0,"x_max":252,"ha":252,"o":""},"I":{"x_min":0,"x_max":226,"ha":226,"o":"m 83 0 l 83 683 l 142 683 l 142 0 z"},"H":{"x_min":0,"x_max":725,"ha":725,"o":"m 80 0 l 80 683 l 135 683 l 135 367 l 589 367 l 589 683 l 644 683 l 644 0 l 589 0 l 589 319 l 135 319 l 135 0 z"},"4":{"x_min":0,"x_max":505,"ha":505,"o":"m 329 306 l 329 590 l 91 306 z m 329 0 l 329 259 l 18 259 l 18 281 l 361 692 l 380 692 l 380 306 l 477 306 l 477 259 l 380 259 l 380 0 z"},"~":{"x_min":0,"x_max":833,"ha":833,"o":"m 747 316 q 695 280 648 262 q 602 244 558 244 q 510 244 428 274 q 420 277 417 278 q 412 280 401 284 q 320 313 276 313 q 235 313 190 295 q 146 276 87 235 l 87 280 q 138 316 185 333 q 232 351 276 351 q 325 351 408 321 q 414 319 417 318 q 421 316 431 313 q 513 283 558 283 q 599 283 644 302 q 688 320 747 361 z"},"D":{"x_min":0,"x_max":731,"ha":731,"o":"m 303 634 l 138 634 l 138 48 l 303 48 q 371 48 419 59 q 468 70 503 94 q 560 132 593 198 q 625 263 625 341 q 625 418 593 484 q 560 550 503 588 q 468 612 419 623 q 371 634 303 634 z m 317 683 q 395 683 450 668 q 505 653 549 621 q 613 573 649 500 q 685 426 685 342 q 685 258 649 184 q 613 111 549 63 q 505 30 449 15 q 394 0 317 0 l 80 0 l 80 683 z"},"^":{"x_min":0,"x_max":1000,"ha":1000,"o":"m 528 712 l 792 440 l 731 440 l 500 669 l 268 440 l 207 440 l 470 712 z"},"0":{"x_min":0,"x_max":505,"ha":505,"o":"m 88 341 q 88 201 133 119 q 177 38 252 38 q 327 38 371 120 q 416 201 416 341 q 416 481 371 562 q 327 644 252 644 q 177 644 133 563 q 88 481 88 341 z m 35 341 q 35 504 94 599 q 153 694 252 694 q 351 694 410 599 q 469 504 469 341 q 469 178 410 83 q 351 -12 252 -12 q 153 -12 94 83 q 35 178 35 341 z"},"F":{"x_min":0,"x_max":447,"ha":447,"o":"m 80 0 l 80 683 l 427 683 l 427 637 l 137 637 l 137 385 l 399 385 l 399 340 l 137 340 l 137 0 z"},"`":{"x_min":0,"x_max":500,"ha":500,"o":"m 266 515 l 135 685 l 209 685 l 311 515 z"},"k":{"x_min":0,"x_max":412,"ha":412,"o":"m 360 0 l 119 240 l 330 451 l 397 451 l 186 242 l 428 0 z m 65 0 l 65 683 l 115 683 l 115 0 z"},"u":{"x_min":0,"x_max":484,"ha":484,"o":"m 374 70 q 342 30 303 11 q 264 -9 218 -9 q 141 -9 100 39 q 58 86 58 174 l 58 451 l 108 451 l 108 198 q 108 117 136 77 q 165 37 223 37 q 270 37 308 61 q 346 84 374 131 l 374 451 l 424 451 l 424 0 l 374 0 z"},"]":{"x_min":0,"x_max":279,"ha":279,"o":"m 173 -163 l 173 635 l -5 635 l -5 683 l 225 683 l 225 -211 l -5 -211 l -5 -163 z"},"U":{"x_min":0,"x_max":713,"ha":713,"o":"m 130 283 q 130 173 191 109 q 253 44 356 44 q 459 44 521 109 q 582 173 582 283 l 582 683 l 639 683 l 639 286 q 639 148 562 68 q 486 -13 356 -13 q 227 -13 150 67 q 74 148 74 286 l 74 683 l 130 683 z"},"o":{"x_min":0,"x_max":529,"ha":529,"o":"m 85 225 q 85 146 138 92 q 190 37 265 37 q 339 37 392 92 q 444 146 444 225 q 444 304 392 359 q 340 414 265 414 q 189 414 137 359 q 85 304 85 225 z m 30 226 q 30 324 98 393 q 167 461 265 461 q 363 461 431 392 q 500 324 500 226 q 500 180 482 136 q 463 92 430 59 q 396 25 354 8 q 312 -9 265 -9 q 167 -9 98 59 q 30 127 30 226 z"},"N":{"x_min":0,"x_max":772,"ha":772,"o":"m 80 0 l 80 683 l 137 683 l 637 87 l 637 683 l 692 683 l 692 0 l 641 0 l 135 604 l 135 0 z"},"+":{"x_min":0,"x_max":833,"ha":833,"o":"m 436 596 l 436 318 l 709 318 l 709 278 l 436 278 l 436 0 l 397 0 l 397 278 l 124 278 l 124 318 l 397 318 l 397 596 z"},"G":{"x_min":0,"x_max":715,"ha":715,"o":"m 648 51 q 585 19 526 3 q 467 -12 409 -12 q 350 -12 297 3 q 244 19 198 49 q 123 98 82 175 q 40 253 40 344 q 40 413 67 478 q 95 542 145 591 q 198 643 265 669 q 332 695 409 695 q 466 695 526 679 q 585 663 648 631 l 648 574 q 579 611 520 628 q 461 646 407 646 q 359 646 316 633 q 272 620 234 595 q 170 552 135 486 q 100 420 100 342 q 100 282 123 225 q 146 169 187 126 q 229 83 285 60 q 342 37 408 37 q 451 37 497 48 q 544 60 594 82 l 594 266 l 450 266 l 450 314 l 648 314 z"},"q":{"x_min":0,"x_max":491,"ha":491,"o":"m 377 87 l 377 363 q 352 389 323 402 q 293 414 256 414 q 181 414 133 362 q 86 310 86 225 q 86 141 133 88 q 181 36 256 36 q 293 36 323 48 q 352 61 377 87 z m 377 32 q 350 12 319 2 q 288 -8 250 -8 q 151 -8 90 57 q 29 122 29 226 q 29 331 90 395 q 151 460 250 460 q 287 460 318 450 q 350 440 377 419 l 377 450 l 426 451 l 426 -227 l 377 -227 z"},"d":{"x_min":0,"x_max":491,"ha":491,"o":"m 377 88 l 377 365 q 352 391 323 404 q 293 416 256 416 q 181 416 133 364 q 86 312 86 227 q 86 143 133 90 q 181 38 256 38 q 294 38 323 50 q 353 62 377 88 z m 377 33 q 350 12 318 2 q 287 -8 250 -8 q 151 -8 90 57 q 29 122 29 226 q 29 331 90 395 q 151 460 250 460 q 287 460 318 450 q 350 440 377 419 l 377 683 l 426 683 l 426 0 l 377 0 z"},"1":{"x_min":0,"x_max":505,"ha":505,"o":"m 227 0 l 227 683 l 278 683 l 278 0 z"},"5":{"x_min":0,"x_max":505,"ha":505,"o":"m 54 38 l 54 97 q 96 68 137 53 q 178 39 219 39 q 293 39 340 86 q 387 134 387 209 q 387 287 339 331 q 291 376 207 376 q 189 376 165 374 q 141 372 112 367 l 112 683 l 403 683 l 403 634 l 163 634 l 163 419 q 176 421 190 422 q 205 423 220 423 q 323 423 383 366 q 442 309 442 210 q 442 111 379 50 q 315 -12 213 -12 q 169 -12 129 0 q 89 13 54 38 z"}}}
